HIERARCHY
ROOT Hips
{
	OFFSET 0.00000 0.00000 0.00000
	CHANNELS 6 Xposition Yposition Zposition Zrotation Yrotation Xrotation 
	JOINT LHipJoint
	{
		OFFSET 0 0 0
		CHANNELS 3 Zrotation Yrotation Xrotation
		JOINT LeftUpLeg
		{
			OFFSET 1.46561 -1.72757 0.83774
			CHANNELS 3 Zrotation Yrotation Xrotation
			JOINT LeftLeg
			{
				OFFSET 2.48915 -6.83890 0.00000
				CHANNELS 3 Zrotation Yrotation Xrotation
				JOINT LeftFoot
				{
					OFFSET 2.60555 -7.15868 0.00000
					CHANNELS 3 Zrotation Yrotation Xrotation
					JOINT LeftToeBase
					{
						OFFSET 0.19248 -0.52884 2.26738
						CHANNELS 3 Zrotation Yrotation Xrotation
						End Site
						{
							OFFSET 0.00000 -0.00000 1.17015
						}
					}
				}
			}
		}
	}
	JOINT RHipJoint
	{
		OFFSET 0 0 0
		CHANNELS 3 Zrotation Yrotation Xrotation
		JOINT RightUpLeg
		{
			OFFSET -1.46918 -1.72757 0.83774
			CHANNELS 3 Zrotation Yrotation Xrotation
			JOINT RightLeg
			{
				OFFSET -2.49034 -6.84216 0.00000
				CHANNELS 3 Zrotation Yrotation Xrotation
				JOINT RightFoot
				{
					OFFSET -2.65971 -7.30750 0.00000
					CHANNELS 3 Zrotation Yrotation Xrotation
					JOINT RightToeBase
					{
						OFFSET -0.19227 -0.52827 2.30785
						CHANNELS 3 Zrotation Yrotation Xrotation
						End Site
						{
							OFFSET -0.00000 -0.00000 1.18972
						}
					}
				}
			}
		}
	}
	JOINT LowerBack
	{
		OFFSET 0 0 0
		CHANNELS 3 Zrotation Yrotation Xrotation
		JOINT Spine
		{
			OFFSET 0.02432 2.19909 -0.28000
			CHANNELS 3 Zrotation Yrotation Xrotation
			JOINT Spine1
			{
				OFFSET 0.03714 2.21816 -0.15261
				CHANNELS 3 Zrotation Yrotation Xrotation
				JOINT Neck
				{
					OFFSET 0 0 0
					CHANNELS 3 Zrotation Yrotation Xrotation
					JOINT Neck1
					{
						OFFSET -0.01896 1.56165 0.21681
						CHANNELS 3 Zrotation Yrotation Xrotation
						JOINT Head
						{
							OFFSET 0.02744 1.56009 0.06764
							CHANNELS 3 Zrotation Yrotation Xrotation
							End Site
							{
								OFFSET 0.01212 1.60574 0.00298
							}
						}
					}
				}
				JOINT LeftShoulder
				{
					OFFSET 0 0 0
					CHANNELS 3 Zrotation Yrotation Xrotation
					JOINT LeftArm
					{
						OFFSET 3.05595 1.48048 -0.60794
						CHANNELS 3 Zrotation Yrotation Xrotation
						JOINT LeftForeArm
						{
							OFFSET 5.20607 -0.00000 -0.00000
							CHANNELS 3 Zrotation Yrotation Xrotation
							JOINT LeftHand
							{
								OFFSET 3.39961 -0.00000 0.00000
								CHANNELS 3 Zrotation Yrotation Xrotation
								JOINT LeftFingerBase
								{
									OFFSET 0 0 0
									CHANNELS 3 Zrotation Yrotation Xrotation
									JOINT LeftHandIndex1
									{
										OFFSET 0.51969 -0.00000 0.00000
										CHANNELS 3 Zrotation Yrotation Xrotation
										End Site
										{
											OFFSET 0.41899 -0.00000 0.00000
										}
									}
								}
								JOINT LThumb
								{
									OFFSET 0 0 0
									CHANNELS 3 Zrotation Yrotation Xrotation
									End Site
									{
										OFFSET 0.42539 -0.00000 0.42539
									}
								}
							}
						}
					}
				}
				JOINT RightShoulder
				{
					OFFSET 0 0 0
					CHANNELS 3 Zrotation Yrotation Xrotation
					JOINT RightArm
					{
						OFFSET -2.99052 1.57608 -0.69102
						CHANNELS 3 Zrotation Yrotation Xrotation
						JOINT RightForeArm
						{
							OFFSET -5.32214 -0.00000 0.00000
							CHANNELS 3 Zrotation Yrotation Xrotation
							JOINT RightHand
							{
								OFFSET -3.51208 -0.00000 0.00000
								CHANNELS 3 Zrotation Yrotation Xrotation
								JOINT RightFingerBase
								{
									OFFSET 0 0 0
									CHANNELS 3 Zrotation Yrotation Xrotation
									JOINT RightHandIndex1
									{
										OFFSET -0.58668 -0.00000 0.00000
										CHANNELS 3 Zrotation Yrotation Xrotation
										End Site
										{
											OFFSET -0.47300 -0.00000 0.00000
										}
									}
								}
								JOINT RThumb
								{
									OFFSET 0 0 0
									CHANNELS 3 Zrotation Yrotation Xrotation
									End Site
									{
										OFFSET -0.48022 -0.00000 0.48022
									}
								}
							}
						}
					}
				}
			}
		}
	}
}
MOTION
Frames: 15
Frame Time: .0083333
-0.0859 19.8506 -11.3891 1.5139 4.5291 13.8733 0.0000 0.0000 0.0000 -17.1860 2.2252 -24.8640 2.2419 9.3528 26.9051 2.3668 5.2525 27.9597 0.0027 0.3335 0.9163 0.0000 0.0000 0.0000 16.0344 -2.5137 -17.4974 -1.2799 -7.1695 20.2186 -0.2555 -17.0983 14.3640 -1.0114 -6.3988 17.9461 -3.6312 -0.8333 8.4942 2.0846 -1.3420 3.8992 4.3210 -0.7275 -0.5808 -1.8760 -0.8199 -13.1327 0.5481 -0.8336 22.6657 0.4068 -0.4844 9.3081 0.0000 -0.0000 0.0000 -65.3271 37.1885 50.6994 114.7793 -57.5478 -81.2828 -0.0000 0.0000 -46.9827 37.2862 -14.3405 -10.6800 -7.1250 0.0000 -0.0000 6.5360 12.2537 -5.0336 0.0000 -0.0000 0.0000 71.8091 -28.1022 32.4202 -107.4166 58.8222 -75.0236 0.0000 0.0000 17.2666 -29.4089 -24.9998 13.3992 7.1250 -0.0000 -0.0000 0.1806 -58.1390 -0.0580
-0.0900 20.1897 -11.2416 1.3348 4.8055 14.1397 0.0000 0.0000 0.0000 -16.7341 1.7017 -24.5271 2.0704 9.0112 25.8304 2.6345 6.3483 29.4351 0.0237 0.9948 2.7344 0.0000 0.0000 0.0000 16.3119 -2.4116 -16.8701 -1.1023 -6.6711 18.7445 -0.1361 -20.4705 15.4900 -1.5293 -7.8078 22.1318 -3.6242 -0.9928 7.2348 2.1487 -1.5171 3.8590 4.3653 -0.8311 0.0922 -1.8481 -0.8266 -12.7899 0.6795 -0.8900 23.1532 0.4421 -0.4961 9.4150 0.0000 -0.0000 0.0000 -64.8773 38.6482 51.3645 114.4034 -57.6256 -80.9655 -0.0000 0.0000 -46.0584 37.9856 -14.4005 -10.9903 -7.1250 0.0000 -0.0000 6.9841 12.0367 -5.4154 0.0000 -0.0000 0.0000 71.9070 -28.8226 32.3921 -106.3219 58.9691 -74.0862 0.0000 0.0000 17.1367 -29.2851 -24.8462 13.2599 7.1250 -0.0000 -0.0000 0.2747 -57.9430 -0.0870
-0.0944 20.5203 -11.1107 1.1385 5.0807 14.4543 0.0000 0.0000 0.0000 -16.2693 1.1076 -24.5839 2.0047 8.8759 25.4079 2.7614 6.9338 30.1091 0.0521 1.4733 4.0520 0.0000 0.0000 0.0000 16.6742 -2.4990 -16.8629 -1.0374 -6.4779 18.1775 -0.0172 -22.5609 16.0276 -1.9081 -8.6720 24.7746 -3.6033 -1.1471 6.1277 2.2179 -1.6902 3.8093 4.4063 -0.9310 0.6734 -1.8239 -0.8442 -12.5420 0.8082 -0.9590 23.5803 0.4756 -0.5136 9.5195 0.0000 -0.0000 0.0000 -64.7018 39.9458 51.8137 113.4990 -57.8071 -80.2009 -0.0000 0.0000 -45.3278 38.6327 -14.4229 -11.2586 -7.1250 0.0000 -0.0000 7.4023 11.8720 -5.7707 0.0000 -0.0000 0.0000 72.1700 -29.3093 32.2003 -104.7865 59.1575 -72.7692 0.0000 0.0000 17.0086 -29.0646 -24.7602 13.1037 7.1250 -0.0000 -0.0000 0.4980 -57.7983 -0.1560
-0.0988 20.8405 -10.9980 0.9504 5.3368 14.7673 0.0000 0.0000 0.0000 -15.8219 0.4762 -24.9678 2.0302 8.9287 25.5726 2.8119 7.1185 30.3795 0.0781 1.8032 4.9621 0.0000 0.0000 0.0000 17.0864 -2.7828 -17.3915 -1.0686 -6.5716 18.4522 0.0156 -23.4346 16.4163 -2.1169 -9.1054 26.1257 -3.5806 -1.2890 5.2341 2.2790 -1.8540 3.7646 4.4393 -1.0235 1.1422 -1.7963 -0.8686 -12.3814 0.9213 -1.0331 23.9485 0.5023 -0.5343 9.6203 -0.0000 0.0000 0.0000 -64.8215 41.0400 52.0049 112.0773 -58.0758 -78.9960 -0.0000 0.0000 -44.9828 39.1694 -14.3917 -11.4471 -7.1250 0.0000 -0.0000 7.7567 11.7935 -6.0648 -0.0000 0.0000 0.0000 72.6107 -29.5363 31.8384 -102.7916 59.3726 -71.0545 0.0000 0.0000 16.9017 -28.7268 -24.7992 12.9468 7.1250 -0.0000 -0.0000 0.8914 -57.7621 -0.2785
-0.1030 21.1481 -10.9038 0.7864 5.5372 15.0205 0.0000 0.0000 0.0000 -15.4188 -0.1390 -25.5837 2.1329 9.1375 26.2263 2.8392 7.0286 30.5423 0.0974 2.0127 5.5407 0.0000 0.0000 0.0000 17.4964 -3.1674 -18.2913 -1.1835 -6.9043 19.4320 -0.0610 -23.4050 16.9323 -2.1780 -9.2274 26.5093 -3.5678 -1.4076 4.6157 2.3210 -1.9953 3.7398 4.4622 -1.1018 1.4770 -1.7513 -0.8880 -12.2895 1.0023 -1.0954 24.2552 0.5162 -0.5510 9.7125 0.0000 0.0000 0.0000 -65.2529 41.9162 51.8998 110.1584 -58.4075 -77.3644 -0.0000 0.0000 -45.1497 39.4945 -14.3465 -11.5422 -7.1250 0.0000 -0.0000 7.9756 11.7776 -6.2421 0.0000 0.0000 0.0000 73.2148 -29.4973 31.3289 -100.3198 59.5937 -68.9250 0.0000 0.0000 16.8330 -28.3713 -24.8945 12.8076 7.1250 -0.0000 -0.0000 1.3221 -57.7829 -0.4137
-0.1065 21.4432 -10.8274 0.6561 5.6495 15.1626 0.0000 0.0000 0.0000 -15.0899 -0.6672 -26.3359 2.3009 9.4666 27.2660 2.8745 6.7986 30.7644 0.1184 2.2181 6.1087 0.0000 0.0000 0.0000 17.8521 -3.5387 -19.3883 -1.3750 -7.4205 20.9671 -0.2274 -22.8321 17.6960 -2.1612 -9.1940 26.4040 -3.5727 -1.4924 4.3113 2.3380 -2.1005 3.7520 4.4755 -1.1596 1.6715 -1.6965 -0.8915 -12.2643 1.0493 -1.1279 24.5157 0.5198 -0.5564 9.8008 0.0000 -0.0000 0.0000 -65.9617 42.5352 51.5099 107.7421 -58.7765 -75.3020 -0.0000 0.0000 -45.8766 39.5363 -14.3750 -11.5807 -7.1250 0.0000 -0.0000 7.9978 11.7332 -6.2672 0.0000 -0.0000 0.0000 73.9521 -29.2048 30.6959 -97.4004 59.7920 -66.4045 0.0000 0.0000 16.8102 -28.0505 -25.0140 12.6971 7.1250 -0.0000 -0.0000 1.7218 -57.8374 -0.5411
-0.1088 21.7264 -10.7663 0.5661 5.6482 15.1570 0.0000 0.0000 0.0000 -14.8663 -1.0343 -27.1329 2.5233 9.8801 28.5893 2.9074 6.5212 30.9789 0.1436 2.4425 6.7302 0.0000 0.0000 0.0000 18.1104 -3.8178 -20.5398 -1.6385 -8.0687 22.9229 -0.4449 -22.0218 18.6749 -2.1662 -9.2040 26.4357 -3.6059 -1.5347 4.3354 2.3271 -2.1581 3.8124 4.4838 -1.1914 1.7278 -1.6370 -0.8777 -12.2951 1.0607 -1.1271 24.7334 0.5140 -0.5497 9.8842 -0.0000 0.0000 0.0000 -66.8939 42.8816 50.8841 104.8281 -59.1527 -72.8050 -0.0000 0.0000 -47.0795 39.3176 -14.4608 -11.5587 -7.1250 0.0000 -0.0000 7.8410 11.6758 -6.1513 -0.0000 0.0000 0.0000 74.7834 -28.6929 29.9699 -94.0976 59.9365 -63.5478 0.0000 0.0000 16.8252 -27.8050 -25.1022 12.6106 7.1250 -0.0000 -0.0000 2.0273 -57.8755 -0.6391
-0.1097 21.9987 -10.7178 0.5073 5.5229 14.9939 0.0000 0.0000 0.0000 -14.7473 -1.2110 -27.9073 2.7897 10.3466 30.1067 2.9096 6.2476 31.0232 0.1651 2.6179 7.2167 0.0000 0.0000 0.0000 18.2615 -3.9765 -21.6604 -1.9716 -8.8066 25.1923 -0.6732 -21.0863 19.6829 -2.2084 -9.2874 26.6984 -3.6606 -1.5298 4.6537 2.2902 -2.1611 3.9362 4.4847 -1.1948 1.6796 -1.5690 -0.8456 -12.3875 1.0316 -1.0909 24.9059 0.4966 -0.5302 9.9626 -0.0000 -0.0000 0.0000 -67.9769 42.9385 50.0925 101.4550 -59.4983 -69.9036 -0.0000 0.0000 -48.5969 38.8712 -14.5968 -11.4829 -7.1250 0.0000 -0.0000 7.5280 11.6069 -5.9120 -0.0000 -0.0000 0.0000 75.6741 -27.9802 29.1733 -90.4806 59.9991 -60.4162 0.0000 0.0000 16.8703 -27.6746 -25.1141 12.5487 7.1250 -0.0000 -0.0000 2.1777 -57.8582 -0.6856
-0.1090 22.2614 -10.6779 0.4787 5.2730 14.6702 0.0000 0.0000 0.0000 -14.7276 -1.1996 -28.5982 3.0898 10.8391 31.7391 2.8728 6.0039 30.8467 0.1686 2.6449 7.2915 0.0000 0.0000 0.0000 18.2968 -4.0110 -22.6878 -2.3702 -9.5980 27.6846 -0.8802 -20.0454 20.5365 -2.2450 -9.3587 26.9240 -3.7421 -1.4743 5.2317 2.2296 -2.1050 4.1217 4.4819 -1.1681 1.5450 -1.5050 -0.8048 -12.5065 0.9776 -1.0341 25.0169 0.4735 -0.5042 10.0240 0.0000 -0.0000 0.0000 -69.1252 42.7314 49.2425 97.7060 -59.7744 -66.6685 -0.0000 0.0000 -50.1958 38.2858 -14.7500 -11.3634 -7.1250 0.0000 -0.0000 7.1218 11.5470 -5.5966 0.0000 -0.0000 0.0000 76.5912 -27.1149 28.3335 -86.6602 59.9578 -57.1081 0.0000 0.0000 16.9046 -27.6362 -25.0689 12.5085 7.1250 -0.0000 -0.0000 2.2052 -57.8008 -0.6912
-0.1074 22.5156 -10.6433 0.4770 4.9262 14.2307 0.0000 0.0000 0.0000 -14.7825 -1.0454 -29.2087 3.4135 11.3361 33.4221 2.8148 5.8385 30.5386 0.1603 2.5793 7.1097 0.0000 0.0000 0.0000 18.2304 -3.9232 -23.6285 -2.8283 -10.4118 30.3208 -1.0349 -19.0211 21.1033 -2.2314 -9.3324 26.8407 -3.8547 -1.3784 5.9807 2.1521 -2.0025 4.3651 4.4810 -1.1188 1.3719 -1.4267 -0.7529 -12.6610 0.8917 -0.9559 25.0657 0.4392 -0.4707 10.0694 -0.0000 0.0000 0.0000 -70.2580 42.2699 48.4361 93.6942 -59.9484 -63.1987 -0.0000 0.0000 -51.6455 37.7055 -14.8409 -11.1999 -7.1250 0.0000 -0.0000 6.7293 11.5609 -5.2816 -0.0000 0.0000 0.0000 77.5087 -26.1356 27.4855 -82.7954 59.8030 -53.7648 0.0000 0.0000 16.8692 -27.6891 -25.0555 12.5297 7.1250 -0.0000 -0.0000 2.1412 -57.7987 -0.6710
-0.1052 22.7624 -10.6102 0.4952 4.5100 13.7128 0.0000 0.0000 0.0000 -14.8855 -0.7871 -29.7391 3.7501 11.8202 35.0990 2.7514 5.7686 30.1842 0.1511 2.5051 6.9037 0.0000 0.0000 0.0000 18.0876 -3.7458 -24.4928 -3.3361 -11.2203 33.0264 -1.1287 -18.1232 21.3647 -2.1894 -9.2500 26.5805 -3.9898 -1.2489 6.8276 2.0623 -1.8615 4.6516 4.4790 -1.0510 1.1869 -1.3379 -0.6982 -12.8303 0.7869 -0.8706 25.0578 0.3972 -0.4350 10.0972 -0.0000 0.0000 0.0000 -71.3078 41.6064 47.7794 89.5734 -59.9993 -59.6306 -0.0000 0.0000 -52.7359 37.2531 -14.9068 -11.0694 -7.1250 0.0000 -0.0000 6.4239 11.5767 -5.0367 -0.0000 0.0000 0.0000 78.4147 -25.0672 26.6456 -78.9425 59.5329 -50.4390 0.0000 0.0000 16.6997 -27.7816 -25.0575 12.5782 7.1250 -0.0000 -0.0000 2.0383 -57.8221 -0.6399
-0.1030 23.0021 -10.5758 0.5276 4.0707 13.1724 0.0000 0.0000 0.0000 -15.0075 -0.4875 -30.2199 4.0896 12.2787 36.7252 2.6895 5.7697 29.8257 0.1458 2.4606 6.7803 0.0000 0.0000 0.0000 17.8997 -3.5135 -25.3198 -3.8812 -12.0006 35.7341 -1.1753 -17.3666 21.3978 -2.1524 -9.1765 26.3491 -4.1397 -1.1047 7.6881 1.9698 -1.7052 4.9625 4.4789 -0.9769 1.0205 -1.2392 -0.6403 -12.9988 0.6682 -0.7796 25.0023 0.3493 -0.3974 10.1077 0.0000 -0.0000 0.0000 -72.2386 40.7799 47.3363 85.4900 -59.9230 -56.0952 -0.0000 0.0000 -53.3300 37.0463 -14.9284 -11.0039 -7.1250 0.0000 -0.0000 6.2856 11.5939 -4.9246 0.0000 -0.0000 0.0000 79.2869 -23.9476 25.8507 -75.2246 59.1588 -47.2403 0.0000 0.0000 16.3300 -27.8752 -25.0731 12.6336 7.1250 -0.0000 -0.0000 1.9385 -57.8604 -0.6103
-0.1011 23.2346 -10.5382 0.5533 3.6368 12.6652 0.0000 0.0000 0.0000 -15.1121 -0.1927 -30.6965 4.4224 12.7023 38.2639 2.6297 5.8027 29.4715 0.1410 2.4202 6.6685 0.0000 0.0000 0.0000 17.7053 -3.2322 -26.1514 -4.4468 -12.7323 38.3745 -1.1957 -16.6798 21.3004 -2.1130 -9.0975 26.1009 -4.2791 -0.9572 8.4851 1.8836 -1.5446 5.2799 4.4746 -0.9019 0.8972 -1.1268 -0.5804 -13.1584 0.5354 -0.6858 24.9149 0.2947 -0.3588 10.1050 -0.0000 0.0000 0.0000 -73.0529 39.8332 47.1207 81.5577 -59.7290 -52.6954 -0.0000 0.0000 -53.3729 37.1352 -14.8902 -11.0117 -7.1250 0.0000 -0.0000 6.3498 11.6212 -4.9719 -0.0000 0.0000 0.0000 80.1148 -22.7922 25.1217 -71.6882 58.6943 -44.2110 0.0000 0.0000 15.7315 -27.9951 -25.0761 12.6970 7.1250 -0.0000 -0.0000 1.8049 -57.8913 -0.5696
-0.0997 23.4592 -10.4972 0.5565 3.2521 12.2435 0.0000 0.0000 0.0000 -15.1703 0.0355 -31.2172 4.7411 13.0862 39.6920 2.5754 5.8465 29.1455 0.1368 2.3842 6.5686 0.0000 0.0000 0.0000 17.5364 -2.9098 -27.0355 -5.0152 -13.4009 40.8883 -1.2062 -15.9963 21.1526 -2.0624 -8.9948 25.7789 -4.3843 -0.8244 9.1718 1.8137 -1.3994 5.5786 4.4639 -0.8349 0.8179 -1.0008 -0.5174 -13.3078 0.3930 -0.5888 24.8255 0.2348 -0.3188 10.0998 0.0000 -0.0000 0.0000 -73.7487 38.7984 47.1243 77.8496 -59.4347 -49.4974 -0.0000 0.0000 -52.9359 37.4375 -14.8218 -11.0811 -7.1250 0.0000 -0.0000 6.5578 11.6405 -5.1343 0.0000 -0.0000 0.0000 80.8852 -21.6369 24.4797 -68.4061 58.1626 -41.4145 0.0000 0.0000 14.9297 -28.1380 -25.0453 12.7567 7.1250 -0.0000 -0.0000 1.6340 -57.8913 -0.5156
-0.0984 23.6749 -10.4521 0.5272 2.9409 11.9253 0.0000 0.0000 0.0000 -15.1708 0.1691 -31.7936 5.0389 13.4275 40.9906 2.5298 5.8895 28.8679 0.1360 2.3770 6.5487 0.0000 0.0000 0.0000 17.4103 -2.5587 -27.9808 -5.5668 -13.9949 43.2172 -1.2183 -15.2782 21.0193 -2.0002 -8.8665 25.3787 -4.4319 -0.7146 9.7244 1.7627 -1.2768 5.8495 4.4374 -0.7788 0.7856 -0.8647 -0.4525 -13.4450 0.2466 -0.4913 24.7538 0.1721 -0.2781 10.0989 0.0000 0.0000 0.0000 -74.3343 37.6873 47.3159 74.3769 -59.0573 -46.5128 -0.0000 0.0000 -52.1391 37.8665 -14.6880 -11.1528 -7.1250 0.0000 -0.0000 6.8592 11.7122 -5.3636 0.0000 0.0000 0.0000 81.5964 -20.4921 23.9283 -65.3937 57.5838 -38.8632 0.0000 0.0000 14.0140 -28.3144 -24.9475 12.8028 7.1250 -0.0000 -0.0000 1.4033 -57.8268 -0.4406
